# xmcd
#
# Track frame offsets: 
#        150
#        26452
#        42511
#        63767
#        91794
#        106406
#        124845
#        145018
#        166050
#        180547
#        209604
#        225036
#        228449
#
# Disc length: 3397 seconds
#
# Revision: 0
# Processed by: cddbd v1.5.2PL0 Copyright (c) Steve Scherf et al.
# Submitted via: ExactAudioCopy v1.0b3
#
DISCID=9c0d430d
DTITLE=bless4 - 夢つむぎ
DYEAR=2012
DGENRE=Pop
TTITLE0=夢つむぎ
TTITLE1=Around and Around
TTITLE2=I Don't Know
TTITLE3=絆の花
TTITLE4=Dreams Become Reality
TTITLE5=龍AGARE!
TTITLE6=My Sunshine
TTITLE7=心に吹く風
TTITLE8=Get Luck
TTITLE9=川の流れのように
TTITLE10=Beat Love
TTITLE11=金の糸 (夢つむぎ Interlude)
TTITLE12=夢つむぎ (English ver.)
EXTD=
EXTT0=
EXTT1=
EXTT2=
EXTT3=
EXTT4=
EXTT5=
EXTT6=
EXTT7=
EXTT8=
EXTT9=
EXTT10=
EXTT11=
EXTT12=
PLAYORDER=
